<svg width="61" height="60" viewBox="0 0 61 60" fill="none" xmlns="http://www.w3.org/2000/svg">
<g clip-path="url(#clip0_27:153)">
<path d="M0.836365 13.125C0.836365 11.6332 1.429 10.2024 2.48389 9.14752C3.53878 8.09263 4.96952 7.5 6.46136 7.5H40.2114C41.7032 7.5 43.1339 8.09263 44.1888 9.14752C45.2437 10.2024 45.8364 11.6332 45.8364 13.125V18.75H49.6614C50.5041 18.7508 51.336 18.9409 52.0954 19.3063C52.8548 19.6717 53.5224 20.2031 54.0489 20.8612L59.6026 27.7987C60.4017 28.7969 60.8369 30.0376 60.8364 31.3162V39.375C60.8364 40.8668 60.2437 42.2976 59.1888 43.3525C58.1339 44.4074 56.7032 45 55.2114 45H53.3364C53.3364 46.9891 52.5462 48.8968 51.1397 50.3033C49.7331 51.7098 47.8255 52.5 45.8364 52.5C43.8472 52.5 41.9396 51.7098 40.5331 50.3033C39.1265 48.8968 38.3364 46.9891 38.3364 45H19.5864C19.5885 45.9997 19.3908 46.9897 19.0048 47.9119C18.6188 48.8341 18.0524 49.6698 17.3388 50.3699C16.6252 51.07 15.7788 51.6204 14.8494 51.9887C13.9201 52.357 12.9264 52.5357 11.927 52.5145C10.9275 52.4932 9.94236 52.2724 9.02948 51.8649C8.11659 51.4575 7.29438 50.8716 6.61117 50.1418C5.92796 49.412 5.39755 48.553 5.05112 47.6152C4.70468 46.6775 4.54922 45.6799 4.59386 44.6812C3.49529 44.2946 2.54383 43.5765 1.87078 42.626C1.19774 41.6756 0.836302 40.5396 0.836365 39.375L0.836365 13.125ZM5.68886 41.085C6.36687 39.975 7.32203 39.0605 8.46048 38.4314C9.59894 37.8022 10.8815 37.4802 12.1821 37.4968C13.4827 37.5135 14.7566 37.8683 15.8786 38.5263C17.0005 39.1843 17.932 40.123 18.5814 41.25H39.3414C40.001 40.111 40.9474 39.1646 42.0864 38.505V13.125C42.0864 12.6277 41.8888 12.1508 41.5372 11.7992C41.1856 11.4475 40.7086 11.25 40.2114 11.25H6.46136C5.96408 11.25 5.48717 11.4475 5.13554 11.7992C4.78391 12.1508 4.58636 12.6277 4.58636 13.125V39.375C4.58607 39.7359 4.68994 40.0892 4.8855 40.3925C5.08107 40.6959 5.36002 40.9363 5.68886 41.085ZM45.8364 37.5C47.1529 37.5 48.4461 37.8466 49.5863 38.5049C50.7264 39.1631 51.6731 40.1099 52.3314 41.25H55.2114C55.7086 41.25 56.1856 41.0525 56.5372 40.7008C56.8888 40.3492 57.0864 39.8723 57.0864 39.375V31.3125C57.0856 30.887 56.9401 30.4744 56.6739 30.1425L51.1239 23.205C50.9485 22.9854 50.726 22.808 50.4729 22.686C50.2197 22.564 49.9424 22.5004 49.6614 22.5H45.8364V37.5ZM12.0864 41.25C11.0918 41.25 10.138 41.6451 9.43471 42.3483C8.73145 43.0516 8.33636 44.0054 8.33636 45C8.33636 45.9946 8.73145 46.9484 9.43471 47.6516C10.138 48.3549 11.0918 48.75 12.0864 48.75C13.0809 48.75 14.0348 48.3549 14.738 47.6516C15.4413 46.9484 15.8364 45.9946 15.8364 45C15.8364 44.0054 15.4413 43.0516 14.738 42.3483C14.0348 41.6451 13.0809 41.25 12.0864 41.25ZM45.8364 41.25C44.8418 41.25 43.888 41.6451 43.1847 42.3483C42.4815 43.0516 42.0864 44.0054 42.0864 45C42.0864 45.9946 42.4815 46.9484 43.1847 47.6516C43.888 48.3549 44.8418 48.75 45.8364 48.75C46.8309 48.75 47.7848 48.3549 48.488 47.6516C49.1913 46.9484 49.5864 45.9946 49.5864 45C49.5864 44.0054 49.1913 43.0516 48.488 42.3483C47.7848 41.6451 46.8309 41.25 45.8364 41.25Z" fill="white"/>
</g>
<defs>
<clipPath id="clip0_27:153">
<rect width="60" height="60" fill="white" transform="translate(0.836365)"/>
</clipPath>
</defs>
</svg>
