<svg width="33" height="32" viewBox="0 0 33 32" fill="none" xmlns="http://www.w3.org/2000/svg">
<path d="M8.5 22H4.5V28H8.5V22ZM18.5 14H14.5V28H18.5V14ZM28.5 4V28H24.5V4H28.5ZM24.5 2C23.9696 2 23.4609 2.21071 23.0858 2.58579C22.7107 2.96086 22.5 3.46957 22.5 4V28C22.5 28.5304 22.7107 29.0391 23.0858 29.4142C23.4609 29.7893 23.9696 30 24.5 30H28.5C29.0304 30 29.5391 29.7893 29.9142 29.4142C30.2893 29.0391 30.5 28.5304 30.5 28V4C30.5 3.46957 30.2893 2.96086 29.9142 2.58579C29.5391 2.21071 29.0304 2 28.5 2H24.5ZM12.5 14C12.5 13.4696 12.7107 12.9609 13.0858 12.5858C13.4609 12.2107 13.9696 12 14.5 12H18.5C19.0304 12 19.5391 12.2107 19.9142 12.5858C20.2893 12.9609 20.5 13.4696 20.5 14V28C20.5 28.5304 20.2893 29.0391 19.9142 29.4142C19.5391 29.7893 19.0304 30 18.5 30H14.5C13.9696 30 13.4609 29.7893 13.0858 29.4142C12.7107 29.0391 12.5 28.5304 12.5 28V14ZM2.5 22C2.5 21.4696 2.71071 20.9609 3.08579 20.5858C3.46086 20.2107 3.96957 20 4.5 20H8.5C9.03043 20 9.53914 20.2107 9.91421 20.5858C10.2893 20.9609 10.5 21.4696 10.5 22V28C10.5 28.5304 10.2893 29.0391 9.91421 29.4142C9.53914 29.7893 9.03043 30 8.5 30H4.5C3.96957 30 3.46086 29.7893 3.08579 29.4142C2.71071 29.0391 2.5 28.5304 2.5 28V22Z" fill="#6366F1"/>
</svg>
