<svg width="36" height="36" viewBox="0 0 36 36" fill="none" xmlns="http://www.w3.org/2000/svg">
<g clip-path="url(#clip0_27:188)">
<path d="M6.44849 33.4126C6.27299 34.4116 7.25849 35.1923 8.12699 34.7468L18.0045 29.6708L27.8797 34.7468C28.7482 35.1923 29.7337 34.4116 29.5582 33.4148L27.6907 22.7723L35.6152 15.2213C36.3577 14.5148 35.9752 13.2233 34.9807 13.0838L23.9602 11.5178L19.0462 1.78206C18.9526 1.58471 18.8049 1.41797 18.6203 1.30121C18.4357 1.18446 18.2218 1.12248 18.0034 1.12248C17.7849 1.12248 17.571 1.18446 17.3864 1.30121C17.2018 1.41797 17.0541 1.58471 16.9605 1.78206L12.0465 11.5201L1.02599 13.0861C0.0337415 13.2256 -0.351009 14.5171 0.389241 15.2236L8.31599 22.7746L6.44849 33.4171V33.4126ZM17.4847 27.1868L9.19124 31.4483L10.7527 22.5451C10.7893 22.3401 10.775 22.1293 10.7111 21.9312C10.6471 21.7331 10.5355 21.5537 10.386 21.4088L3.84749 15.1763L12.9645 13.8803C13.1533 13.8518 13.3323 13.778 13.4863 13.6651C13.6403 13.5522 13.7647 13.4037 13.8487 13.2323L18 5.00181L22.1557 13.2323C22.2398 13.4037 22.3641 13.5522 22.5181 13.6651C22.6721 13.778 22.8512 13.8518 23.04 13.8803L32.157 15.1741L25.6185 21.4066C25.4686 21.5517 25.3568 21.7314 25.2929 21.93C25.2289 22.1285 25.2148 22.3398 25.2517 22.5451L26.8132 31.4483L18.5197 27.1868C18.3594 27.1041 18.1815 27.061 18.0011 27.061C17.8207 27.061 17.6429 27.1041 17.4825 27.1868H17.4847Z" fill="#6366F1"/>
</g>
<defs>
<clipPath id="clip0_27:188">
<rect width="36" height="36" fill="white"/>
</clipPath>
</defs>
</svg>
