<svg width="37" height="36" viewBox="0 0 37 36" fill="none" xmlns="http://www.w3.org/2000/svg">
<g clip-path="url(#clip0_27:183)">
<path d="M2.75 6.75C2.75 6.15326 2.98705 5.58097 3.40901 5.15901C3.83097 4.73705 4.40326 4.5 5 4.5H32C32.5967 4.5 33.169 4.73705 33.591 5.15901C34.0129 5.58097 34.25 6.15326 34.25 6.75H2.75ZM18.5 24.75C19.6935 24.75 20.8381 24.2759 21.682 23.432C22.5259 22.5881 23 21.4435 23 20.25C23 19.0565 22.5259 17.9119 21.682 17.068C20.8381 16.2241 19.6935 15.75 18.5 15.75C17.3065 15.75 16.1619 16.2241 15.318 17.068C14.4741 17.9119 14 19.0565 14 20.25C14 21.4435 14.4741 22.5881 15.318 23.432C16.1619 24.2759 17.3065 24.75 18.5 24.75Z" fill="#6366F1"/>
<path d="M0.5 11.25C0.5 10.6533 0.737053 10.081 1.15901 9.65901C1.58097 9.23705 2.15326 9 2.75 9H34.25C34.8467 9 35.419 9.23705 35.841 9.65901C36.2629 10.081 36.5 10.6533 36.5 11.25V29.25C36.5 29.8467 36.2629 30.419 35.841 30.841C35.419 31.2629 34.8467 31.5 34.25 31.5H2.75C2.15326 31.5 1.58097 31.2629 1.15901 30.841C0.737053 30.419 0.5 29.8467 0.5 29.25V11.25ZM7.25 11.25C7.25 12.4435 6.77589 13.5881 5.93198 14.432C5.08807 15.2759 3.94347 15.75 2.75 15.75V24.75C3.94347 24.75 5.08807 25.2241 5.93198 26.068C6.77589 26.9119 7.25 28.0565 7.25 29.25H29.75C29.75 28.0565 30.2241 26.9119 31.068 26.068C31.9119 25.2241 33.0565 24.75 34.25 24.75V15.75C33.0565 15.75 31.9119 15.2759 31.068 14.432C30.2241 13.5881 29.75 12.4435 29.75 11.25H7.25Z" fill="#6366F1"/>
</g>
<defs>
<clipPath id="clip0_27:183">
<rect width="36" height="36" fill="white" transform="translate(0.5)"/>
</clipPath>
</defs>
</svg>
