<svg width="37" height="36" viewBox="0 0 37 36" fill="none" xmlns="http://www.w3.org/2000/svg">
<g clip-path="url(#clip0_27:178)">
<path d="M34.25 31.5C34.25 31.5 36.5 31.5 36.5 29.25C36.5 27 34.25 20.25 25.25 20.25C16.25 20.25 14 27 14 29.25C14 31.5 16.25 31.5 16.25 31.5H34.25ZM16.2995 29.25C16.2829 29.2477 16.2664 29.2447 16.25 29.241C16.2522 28.647 16.6257 26.9235 17.96 25.371C19.202 23.9153 21.3845 22.5 25.25 22.5C29.1133 22.5 31.2957 23.9175 32.54 25.371C33.8742 26.9235 34.2455 28.6493 34.25 29.241L34.232 29.2455C34.2215 29.2473 34.211 29.2488 34.2005 29.25H16.2995ZM25.25 15.75C26.4435 15.75 27.5881 15.2759 28.432 14.432C29.2759 13.5881 29.75 12.4435 29.75 11.25C29.75 10.0565 29.2759 8.91193 28.432 8.06802C27.5881 7.22411 26.4435 6.75 25.25 6.75C24.0565 6.75 22.9119 7.22411 22.068 8.06802C21.2241 8.91193 20.75 10.0565 20.75 11.25C20.75 12.4435 21.2241 13.5881 22.068 14.432C22.9119 15.2759 24.0565 15.75 25.25 15.75ZM32 11.25C32 12.1364 31.8254 13.0142 31.4862 13.8331C31.147 14.6521 30.6498 15.3962 30.023 16.023C29.3962 16.6498 28.6521 17.147 27.8331 17.4862C27.0142 17.8254 26.1364 18 25.25 18C24.3636 18 23.4858 17.8254 22.6669 17.4862C21.8479 17.147 21.1038 16.6498 20.477 16.023C19.8502 15.3962 19.353 14.6521 19.0138 13.8331C18.6746 13.0142 18.5 12.1364 18.5 11.25C18.5 9.45979 19.2112 7.7429 20.477 6.47703C21.7429 5.21116 23.4598 4.5 25.25 4.5C27.0402 4.5 28.7571 5.21116 30.023 6.47703C31.2888 7.7429 32 9.45979 32 11.25ZM16.106 20.88C15.206 20.5966 14.2782 20.4103 13.3385 20.3243C12.8105 20.274 12.2804 20.2493 11.75 20.25C2.75 20.25 0.5 27 0.5 29.25C0.5 30.7507 1.24925 31.5 2.75 31.5H12.236C11.9024 30.7976 11.7361 30.0275 11.75 29.25C11.75 26.9775 12.5983 24.6555 14.2025 22.716C14.7493 22.0545 15.386 21.4357 16.106 20.88ZM11.57 22.5C10.2383 24.5009 9.51899 26.8466 9.5 29.25H2.75C2.75 28.665 3.119 26.9325 4.46 25.371C5.68625 23.94 7.817 22.545 11.57 22.5023V22.5ZM3.875 12.375C3.875 10.5848 4.58616 8.8679 5.85203 7.60203C7.1179 6.33616 8.83479 5.625 10.625 5.625C12.4152 5.625 14.1321 6.33616 15.398 7.60203C16.6638 8.8679 17.375 10.5848 17.375 12.375C17.375 14.1652 16.6638 15.8821 15.398 17.148C14.1321 18.4138 12.4152 19.125 10.625 19.125C8.83479 19.125 7.1179 18.4138 5.85203 17.148C4.58616 15.8821 3.875 14.1652 3.875 12.375ZM10.625 7.875C9.43153 7.875 8.28693 8.34911 7.44302 9.19302C6.59911 10.0369 6.125 11.1815 6.125 12.375C6.125 13.5685 6.59911 14.7131 7.44302 15.557C8.28693 16.4009 9.43153 16.875 10.625 16.875C11.8185 16.875 12.9631 16.4009 13.807 15.557C14.6509 14.7131 15.125 13.5685 15.125 12.375C15.125 11.1815 14.6509 10.0369 13.807 9.19302C12.9631 8.34911 11.8185 7.875 10.625 7.875Z" fill="#6366F1"/>
</g>
<defs>
<clipPath id="clip0_27:178">
<rect width="36" height="36" fill="white" transform="translate(0.5)"/>
</clipPath>
</defs>
</svg>
