<svg width="37" height="36" viewBox="0 0 37 36" fill="none" xmlns="http://www.w3.org/2000/svg">
<path d="M11.176 3.18C9.27119 3.70497 7.3793 4.2758 5.50201 4.892C5.33059 4.94753 5.17821 5.05009 5.06223 5.18799C4.94625 5.32589 4.87133 5.4936 4.84601 5.672C3.73801 13.986 6.29801 20.052 9.35201 24.048C10.645 25.7568 12.1868 27.2622 13.926 28.514C14.618 29.002 15.23 29.354 15.712 29.58C15.952 29.694 16.148 29.77 16.298 29.816C16.3636 29.839 16.4312 29.8558 16.5 29.866C16.568 29.855 16.6349 29.8382 16.7 29.816C16.852 29.77 17.048 29.694 17.288 29.58C17.768 29.354 18.382 29 19.074 28.514C20.8132 27.2621 22.355 25.7568 23.648 24.048C26.702 20.054 29.262 13.986 28.154 5.672C28.1289 5.49351 28.0541 5.3257 27.9381 5.18776C27.8221 5.04982 27.6696 4.94732 27.498 4.892C26.196 4.466 23.998 3.772 21.824 3.182C19.604 2.58 17.562 2.134 16.5 2.134C15.44 2.134 13.396 2.58 11.176 3.182V3.18ZM10.644 1.12C12.814 0.53 15.12 0 16.5 0C17.88 0 20.186 0.53 22.356 1.12C24.576 1.72 26.814 2.43 28.13 2.86C28.6802 3.0417 29.168 3.37493 29.5374 3.8214C29.9067 4.26787 30.1426 4.80948 30.218 5.384C31.41 14.338 28.644 20.974 25.288 25.364C23.8649 27.242 22.168 28.8957 20.254 30.27C19.5922 30.7456 18.891 31.1637 18.158 31.52C17.598 31.784 16.996 32 16.5 32C16.004 32 15.404 31.784 14.842 31.52C14.109 31.1638 13.4078 30.7456 12.746 30.27C10.8321 28.8957 9.13517 27.2419 7.71201 25.364C4.35601 20.974 1.59001 14.338 2.78201 5.384C2.85739 4.80948 3.0933 4.26787 3.46264 3.8214C3.83199 3.37493 4.31979 3.0417 4.87001 2.86C6.78039 2.23362 8.70562 1.65345 10.644 1.12Z" fill="#6366F1"/>
</svg>
