<svg width="36" height="36" viewBox="0 0 36 36" fill="none" xmlns="http://www.w3.org/2000/svg">
<path d="M30.3705 1.78872L30.7058 1.45347C30.9581 1.20128 31.2576 1.00127 31.5873 0.864841C31.9169 0.728415 32.2702 0.658251 32.6269 0.658356C32.9837 0.65846 33.3369 0.728831 33.6665 0.86545C33.996 1.00207 34.2955 1.20226 34.5476 1.4546C34.7998 1.70693 34.9998 2.00647 35.1363 2.3361C35.2727 2.66574 35.3429 3.01902 35.3428 3.37577C35.3426 3.73252 35.2723 4.08576 35.1357 4.41531C34.999 4.74487 34.7988 5.04428 34.5465 5.29647L34.2113 5.62947C34.7848 6.27266 35.0905 7.11086 35.0658 7.97224C35.0411 8.83362 34.6879 9.65293 34.0785 10.2622L10.9215 33.4215C10.7768 33.5655 10.5955 33.6674 10.3973 33.7162L1.39726 35.9662C1.20892 36.0131 1.01165 36.0105 0.824622 35.9586C0.637595 35.9067 0.467177 35.8073 0.329932 35.6701C0.192687 35.5328 0.0932851 35.3624 0.0413879 35.1754C-0.0105093 34.9883 -0.0131359 34.7911 0.0337633 34.6027L2.28376 25.6027C2.33299 25.4053 2.43486 25.2249 2.57851 25.0807L24.273 3.38622C24.056 3.23351 23.7921 3.16241 23.5278 3.18546C23.2634 3.20852 23.0158 3.32425 22.8285 3.51222L15.4215 10.9215C15.3169 11.0261 15.1927 11.109 15.0561 11.1656C14.9194 11.2223 14.7729 11.2514 14.625 11.2514C14.4771 11.2514 14.3306 11.2223 14.1939 11.1656C14.0573 11.109 13.9331 11.0261 13.8285 10.9215C13.7239 10.8169 13.6409 10.6927 13.5843 10.556C13.5277 10.4194 13.4986 10.2729 13.4986 10.125C13.4986 9.97705 13.5277 9.83057 13.5843 9.69391C13.6409 9.55725 13.7239 9.43307 13.8285 9.32847L21.24 1.92147C21.8497 1.31176 22.6696 0.958519 23.5316 0.934251C24.3935 0.909984 25.232 1.21653 25.875 1.79097C26.4932 1.23846 27.2932 0.932849 28.1223 0.932434C28.9515 0.932019 29.7517 1.23683 30.3705 1.78872ZM28.9215 3.51222C28.7105 3.30132 28.4244 3.18284 28.1261 3.18284C27.8278 3.18284 27.5417 3.30132 27.3308 3.51222L4.38751 26.451L2.66851 33.3292L9.54676 31.6102L32.49 8.67147C32.5948 8.56697 32.6779 8.44282 32.7346 8.30615C32.7913 8.16947 32.8205 8.02295 32.8205 7.87497C32.8205 7.72699 32.7913 7.58047 32.7346 7.4438C32.6779 7.30712 32.5948 7.18297 32.49 7.07847L28.9238 3.51222H28.9215Z" fill="#6366F1"/>
</svg>
