<svg width="32" height="32" viewBox="0 0 32 32" fill="none" xmlns="http://www.w3.org/2000/svg">
<path d="M8.49141 9.84009C8.54974 9.84009 8.59641 9.86342 8.63141 9.91009C8.66641 9.94509 8.67807 9.99176 8.66641 10.0501L8.45641 11.7476C8.44474 11.8059 8.41557 11.8584 8.36891 11.9051C8.33391 11.9401 8.28724 11.9576 8.22891 11.9576H6.09391C6.07057 11.9576 6.04724 11.9693 6.02391 11.9926C6.01224 12.0043 6.00641 12.0218 6.00641 12.0451L4.79891 21.8801C4.78724 21.9384 4.75807 21.9909 4.71141 22.0376C4.67641 22.0726 4.62974 22.0901 4.57141 22.0901H2.57641C2.51807 22.0901 2.47141 22.0726 2.43641 22.0376C2.40141 21.9909 2.38974 21.9384 2.40141 21.8801L3.60891 12.0451C3.63224 11.9868 3.60891 11.9576 3.53891 11.9576H1.50891C1.38057 11.9576 1.31641 11.8876 1.31641 11.7476L1.52641 10.0501C1.53807 9.99176 1.56141 9.94509 1.59641 9.91009C1.64307 9.86342 1.69557 9.84009 1.75391 9.84009H8.49141Z" fill="#FFA800"/>
<path d="M10.4707 22.0901C10.3307 22.0901 10.2607 22.0259 10.2607 21.8976L9.42068 10.0676V10.0326C9.42068 9.90425 9.49068 9.84009 9.63068 9.84009H11.6957C11.824 9.84009 11.8882 9.90425 11.8882 10.0326L12.0807 16.3326C12.0924 16.3793 12.1099 16.4026 12.1332 16.4026C12.1565 16.4026 12.174 16.3793 12.1857 16.3326L13.8832 10.0326C13.9182 9.90425 13.9999 9.84009 14.1282 9.84009H15.8432C15.9715 9.84009 16.0357 9.90425 16.0357 10.0326L16.2632 16.3326C16.2632 16.3793 16.2749 16.4026 16.2982 16.4026C16.3332 16.4026 16.3565 16.3793 16.3682 16.3326L17.9957 10.0326C18.0307 9.90425 18.1124 9.84009 18.2407 9.84009H20.2532C20.3932 9.84009 20.4457 9.91592 20.4107 10.0676L16.8057 21.8976C16.7707 22.0259 16.689 22.0901 16.5607 22.0901H14.7232C14.5949 22.0901 14.5307 22.0259 14.5307 21.8976L14.3207 15.4226C14.3207 15.3759 14.309 15.3526 14.2857 15.3526C14.2624 15.3526 14.239 15.3759 14.2157 15.4226L12.5182 21.8976C12.4832 22.0259 12.4015 22.0901 12.2732 22.0901H10.4707Z" fill="#FFA800"/>
<path d="M20.2351 22.0901C20.1768 22.0901 20.1301 22.0726 20.0951 22.0376C20.0601 21.9909 20.0485 21.9384 20.0601 21.8801L21.5126 10.0501C21.5243 9.99176 21.5476 9.94509 21.5826 9.91009C21.6293 9.86342 21.6818 9.84009 21.7401 9.84009H24.8026C25.7476 9.84009 26.4885 10.1026 27.0251 10.6276C27.5735 11.1409 27.8476 11.8351 27.8476 12.7101C27.8476 12.8268 27.836 13.0018 27.8126 13.2351L27.1301 18.6951C27.0018 19.7218 26.5876 20.5443 25.8876 21.1626C25.1993 21.7809 24.336 22.0901 23.2976 22.0901H20.2351ZM22.7026 19.8851C22.6793 19.9434 22.7026 19.9726 22.7726 19.9726L23.5426 19.9551C23.846 19.9434 24.1085 19.8093 24.3301 19.5526C24.5635 19.2959 24.7093 18.9576 24.7676 18.5376L25.3976 13.3926C25.4093 13.3226 25.4151 13.2234 25.4151 13.0951C25.4151 12.7451 25.3335 12.4709 25.1701 12.2726C25.0185 12.0626 24.7968 11.9576 24.5051 11.9576H23.7526C23.6943 11.9576 23.6651 11.9868 23.6651 12.0451L22.7026 19.8851Z" fill="#FFA800"/>
<path d="M29.1436 22.1601C28.7936 22.1601 28.5078 22.0493 28.2861 21.8276C28.0644 21.5943 27.9536 21.3026 27.9536 20.9526C27.9536 20.5093 28.0994 20.1418 28.3911 19.8501C28.6944 19.5468 29.0619 19.3951 29.4936 19.3951C29.8553 19.3951 30.1411 19.5059 30.3511 19.7276C30.5728 19.9376 30.6836 20.2234 30.6836 20.5851C30.6836 21.0284 30.5319 21.4018 30.2286 21.7051C29.9253 22.0084 29.5636 22.1601 29.1436 22.1601Z" fill="#FFA800"/>
</svg>
