<svg width="396" height="112" viewBox="0 0 396 112" fill="none" xmlns="http://www.w3.org/2000/svg">
<path d="M15.4641 85.3589C16.0586 84.3348 16.9277 83.4656 17.9455 82.8604C163.824 -3.88236 236.911 -36.3734 387.692 54.9017C388.838 55.5955 389.737 56.694 390.171 57.9616C391.98 63.2499 385.847 67.8106 381.208 64.6928C247.645 -25.0771 158.459 6.52304 25.5563 94.7408C19.3801 98.8405 11.7427 91.7701 15.4641 85.3589Z" fill="black" fill-opacity="0.6"/>
<path d="M29.902 84.2838C30.3785 84.0046 30.5384 83.392 30.2592 82.9155C29.98 82.4389 29.3673 82.279 28.8908 82.5582L29.902 84.2838ZM37.5397 77.5033C37.0625 77.7814 36.9011 78.3936 37.1792 78.8708C37.4572 79.348 38.0695 79.5094 38.5467 79.2313L37.5397 77.5033ZM47.3017 74.148C47.7798 73.8715 47.9432 73.2598 47.6668 72.7817C47.3903 72.3036 46.7786 72.1402 46.3005 72.4166L47.3017 74.148ZM55.0341 67.3909C54.5548 67.6653 54.3886 68.2763 54.663 68.7556C54.9373 69.2349 55.5483 69.4011 56.0276 69.1267L55.0341 67.3909ZM64.7399 64.1711C65.2207 63.8994 65.3903 63.2894 65.1186 62.8085C64.8469 62.3277 64.2369 62.1581 63.7561 62.4298L64.7399 64.1711ZM72.5693 57.4897C72.0866 57.758 71.9127 58.3669 72.181 58.8496C72.4493 59.3323 73.0581 59.5062 73.5409 59.2379L72.5693 57.4897ZM82.3736 54.3769C82.8587 54.1128 83.0377 53.5054 82.7736 53.0204C82.5095 52.5354 81.9021 52.3563 81.4171 52.6205L82.3736 54.3769ZM90.2873 47.8475C89.7996 48.1066 89.6142 48.712 89.8733 49.1998C90.1324 49.6875 90.7379 49.8729 91.2256 49.6138L90.2873 47.8475ZM100.113 44.9608C100.603 44.7078 100.796 44.1047 100.543 43.6138C100.29 43.1229 99.6871 42.9301 99.1962 43.1831L100.113 44.9608ZM108.192 38.6268C107.697 38.8726 107.496 39.4728 107.741 39.9674C107.987 40.4619 108.587 40.6636 109.082 40.4177L108.192 38.6268ZM118.141 36.0092C118.64 35.772 118.852 35.1753 118.615 34.6766C118.378 34.1779 117.781 33.9659 117.282 34.2031L118.141 36.0092ZM126.444 29.9547C125.941 30.1819 125.717 30.7741 125.944 31.2775C126.171 31.7809 126.763 32.0049 127.267 31.7778L126.444 29.9547ZM136.472 27.7502C136.98 27.5349 137.218 26.948 137.003 26.4395C136.787 25.9309 136.2 25.6932 135.692 25.9085L136.472 27.7502ZM145.037 22.0956C144.523 22.2972 144.27 22.8774 144.471 23.3916C144.673 23.9058 145.253 24.1592 145.767 23.9576L145.037 22.0956ZM155.163 20.4351C155.684 20.2493 155.955 19.6771 155.769 19.157C155.583 18.6369 155.011 18.3658 154.491 18.5516L155.163 20.4351ZM164.059 15.316C163.532 15.4837 163.242 16.0462 163.409 16.5724C163.577 17.0986 164.14 17.3893 164.666 17.2216L164.059 15.316ZM174.277 14.3587C174.809 14.2115 175.121 13.6606 174.974 13.1283C174.827 12.596 174.276 12.2839 173.743 12.4311L174.277 14.3587ZM183.542 9.9405C183.004 10.065 182.669 10.6021 182.793 11.1401C182.918 11.6782 183.455 12.0135 183.993 11.889L183.542 9.9405ZM193.806 9.85369C194.349 9.7542 194.709 9.23315 194.609 8.6899C194.51 8.14665 193.989 7.78692 193.445 7.88641L193.806 9.85369ZM203.438 6.30713C202.891 6.37976 202.506 6.88247 202.578 7.42996C202.651 7.97745 203.154 8.36239 203.701 8.28976L203.438 6.30713ZM213.66 7.22722C214.211 7.18288 214.621 6.70066 214.577 6.15016C214.533 5.59965 214.05 5.18933 213.5 5.23368L213.66 7.22722ZM223.604 4.68708C223.052 4.70231 222.617 5.1622 222.632 5.71427C222.648 6.26635 223.107 6.70155 223.66 6.68632L223.604 4.68708ZM233.673 6.67578C234.225 6.68982 234.684 6.25363 234.698 5.70152C234.712 5.14941 234.276 4.69046 233.724 4.67643L233.673 6.67578ZM243.829 5.19827C243.278 5.15548 242.797 5.56717 242.754 6.1178C242.712 6.66842 243.123 7.14947 243.674 7.19226L243.829 5.19827ZM253.638 8.22111C254.186 8.29154 254.687 7.90456 254.757 7.35679C254.828 6.80901 254.441 6.30786 253.893 6.23744L253.638 8.22111ZM263.894 7.76919C263.351 7.6727 262.832 8.0353 262.735 8.57909C262.639 9.12288 263.001 9.64194 263.545 9.73843L263.894 7.76919ZM273.379 11.7138C273.918 11.8344 274.452 11.4954 274.573 10.9564C274.694 10.4175 274.355 9.88278 273.816 9.76209L273.379 11.7138ZM283.647 12.1812C283.114 12.0383 282.565 12.355 282.423 12.8885C282.28 13.422 282.596 13.9702 283.13 14.1131L283.647 12.1812ZM292.772 16.8946C293.299 17.0575 293.859 16.7618 294.022 16.2341C294.185 15.7064 293.89 15.1465 293.362 14.9836L292.772 16.8946ZM302.939 18.1248C302.418 17.9439 301.848 18.2202 301.667 18.742C301.486 19.2638 301.762 19.8335 302.284 20.0144L302.939 18.1248ZM311.697 23.4463C312.212 23.6434 312.791 23.3849 312.988 22.869C313.185 22.3531 312.926 21.775 312.41 21.578L311.697 23.4463ZM321.787 25.3146C321.277 25.103 320.692 25.3451 320.48 25.8553C320.269 26.3655 320.511 26.9505 321.021 27.1621L321.787 25.3146ZM330.272 31.1386C330.776 31.363 331.367 31.1358 331.592 30.6312C331.816 30.1266 331.589 29.5356 331.085 29.3112L330.272 31.1386ZM340.284 33.5313C339.785 33.2954 339.189 33.509 338.953 34.0084C338.717 34.5077 338.93 35.1038 339.43 35.3397L340.284 33.5313ZM348.424 39.7035C348.918 39.9496 349.519 39.7482 349.765 39.2538C350.011 38.7594 349.809 38.1591 349.315 37.913L348.424 39.7035ZM358.303 42.492C357.813 42.2368 357.209 42.4271 356.954 42.9169C356.699 43.4067 356.889 44.0106 357.379 44.2657L358.303 42.492ZM366.318 49.0202C366.803 49.2836 367.41 49.1035 367.674 48.6181C367.937 48.1327 367.757 47.5256 367.271 47.2623L366.318 49.0202ZM376.038 52.1052C375.557 51.8346 374.947 52.0055 374.677 52.487C374.406 52.9684 374.577 53.5781 375.058 53.8487L376.038 52.1052ZM25.5064 86.8623C26.9799 85.9971 28.445 85.1376 29.902 84.2838L28.8908 82.5582C27.4333 83.4123 25.9676 84.2722 24.4936 85.1377L25.5064 86.8623ZM38.5467 79.2313C41.4982 77.5113 44.416 75.8167 47.3017 74.148L46.3005 72.4166C43.4126 74.0866 40.4928 75.7823 37.5397 77.5033L38.5467 79.2313ZM56.0276 69.1267C58.9642 67.4458 61.8677 65.7938 64.7399 64.1711L63.7561 62.4298C60.8803 64.0545 57.9736 65.7084 55.0341 67.3909L56.0276 69.1267ZM73.5409 59.2379C76.5176 57.5835 79.4612 55.9629 82.3736 54.3769L81.4171 52.6205C78.4992 54.2095 75.5506 55.8328 72.5693 57.4897L73.5409 59.2379ZM91.2256 49.6138C94.2191 48.0235 97.1806 46.4722 100.113 44.9608L99.1962 43.1831C96.2564 44.6986 93.2876 46.2537 90.2873 47.8475L91.2256 49.6138ZM109.082 40.4177C112.131 38.9019 115.15 37.4321 118.141 36.0092L117.282 34.2031C114.28 35.6313 111.251 37.1062 108.192 38.6268L109.082 40.4177ZM127.267 31.7778C130.362 30.3815 133.429 29.0386 136.472 27.7502L135.692 25.9085C132.634 27.2032 129.552 28.5524 126.444 29.9547L127.267 31.7778ZM145.767 23.9576C148.921 22.7211 152.052 21.5465 155.163 20.4351L154.491 18.5516C151.359 19.6702 148.209 20.852 145.037 22.0956L145.767 23.9576ZM164.666 17.2216C167.884 16.196 171.086 15.2412 174.277 14.3587L173.743 12.4311C170.527 13.3208 167.301 14.283 164.059 15.316L164.666 17.2216ZM183.993 11.889C187.27 11.131 190.539 10.452 193.806 9.85369L193.445 7.88641C190.148 8.49041 186.848 9.17574 183.542 9.9405L183.993 11.889ZM203.701 8.28976C207.017 7.84992 210.335 7.49512 213.66 7.22722L213.5 5.23368C210.139 5.50438 206.787 5.86285 203.438 6.30713L203.701 8.28976ZM223.66 6.68632C226.983 6.59465 230.319 6.59051 233.673 6.67578L233.724 4.67643C230.334 4.59026 226.963 4.59443 223.604 4.68708L223.66 6.68632ZM243.674 7.19226C246.972 7.4485 250.291 7.79086 253.638 8.22111L253.893 6.23744C250.514 5.80296 247.16 5.45714 243.829 5.19827L243.674 7.19226ZM263.545 9.73843C266.793 10.3147 270.069 10.9727 273.379 11.7138L273.816 9.76209C270.478 9.01464 267.172 8.35082 263.894 7.76919L263.545 9.73843ZM283.13 14.1131C286.31 14.9647 289.523 15.8915 292.772 16.8946L293.362 14.9836C290.09 13.9733 286.853 13.0395 283.647 12.1812L283.13 14.1131ZM302.284 20.0144C305.386 21.0903 308.523 22.2339 311.697 23.4463L312.41 21.578C309.218 20.3584 306.062 19.2077 302.939 18.1248L302.284 20.0144ZM321.021 27.1621C324.069 28.4258 327.152 29.751 330.272 31.1386L331.085 29.3112C327.949 27.9169 324.851 26.585 321.787 25.3146L321.021 27.1621ZM339.43 35.3397C342.393 36.7397 345.391 38.1941 348.424 39.7035L349.315 37.913C346.27 36.3977 343.26 34.9373 340.284 33.5313L339.43 35.3397ZM357.379 44.2657C360.324 45.8002 363.303 47.3848 366.318 49.0202L367.271 47.2623C364.248 45.6217 361.259 44.0318 358.303 42.492L357.379 44.2657ZM375.058 53.8487C376.532 54.6768 378.014 55.5166 379.504 56.3682L380.496 54.6318C379.002 53.7778 377.516 52.9357 376.038 52.1052L375.058 53.8487Z" fill="white"/>
</svg>
