<svg width="256" height="256" viewBox="0 0 256 256" fill="none" xmlns="http://www.w3.org/2000/svg">
<path d="M67.0732 78.0161C67.5465 78.0161 67.9252 78.2054 68.2092 78.5841C68.4932 78.8681 68.5878 79.2468 68.4932 79.7201L66.7892 93.4941C66.6945 93.9674 66.4578 94.3935 66.0792 94.7721C65.7952 95.0561 65.4165 95.1981 64.9431 95.1981H47.6191C47.4298 95.1981 47.2405 95.2928 47.0512 95.4821C46.9565 95.5768 46.9091 95.7188 46.9091 95.9081L37.1111 175.712C37.0165 176.185 36.7798 176.611 36.4011 176.99C36.1172 177.274 35.7385 177.416 35.2652 177.416H19.0771C18.6038 177.416 18.2251 177.274 17.9411 176.99C17.6571 176.611 17.5625 176.185 17.6572 175.712L27.4552 95.9081C27.6445 95.4348 27.4551 95.1981 26.8871 95.1981H10.4151C9.37382 95.1981 8.85315 94.6301 8.85315 93.4941L10.5571 79.7201C10.6518 79.2468 10.8411 78.8681 11.1251 78.5841C11.5038 78.2054 11.9298 78.0161 12.4031 78.0161H67.0732Z" fill="#FFA800"/>
<path d="M83.1336 177.416C81.9976 177.416 81.4296 176.895 81.4296 175.854L74.6136 79.8621V79.5781C74.6136 78.5368 75.1816 78.0161 76.3176 78.0161H93.0736C94.1149 78.0161 94.6356 78.5368 94.6356 79.5781L96.1976 130.698C96.2922 131.077 96.4342 131.266 96.6236 131.266C96.8129 131.266 96.9549 131.077 97.0496 130.698L110.824 79.5781C111.108 78.5368 111.77 78.0161 112.812 78.0161H126.728C127.769 78.0161 128.29 78.5368 128.29 79.5781L130.136 130.698C130.136 131.077 130.23 131.266 130.42 131.266C130.704 131.266 130.893 131.077 130.988 130.698L144.194 79.5781C144.478 78.5368 145.14 78.0161 146.182 78.0161H162.512C163.648 78.0161 164.074 78.6314 163.79 79.8621L134.538 175.854C134.254 176.895 133.591 177.416 132.55 177.416H117.64C116.598 177.416 116.078 176.895 116.078 175.854L114.374 123.314C114.374 122.935 114.279 122.746 114.09 122.746C113.9 122.746 113.711 122.935 113.522 123.314L99.7476 175.854C99.4636 176.895 98.8009 177.416 97.7596 177.416H83.1336Z" fill="#FFA800"/>
<path d="M162.365 177.416C161.892 177.416 161.513 177.274 161.229 176.99C160.945 176.611 160.85 176.185 160.945 175.712L172.731 79.7201C172.826 79.2468 173.015 78.8681 173.299 78.5841C173.678 78.2054 174.104 78.0161 174.577 78.0161H199.427C207.095 78.0161 213.106 80.1461 217.461 84.4061C221.91 88.5715 224.135 94.2041 224.135 101.304C224.135 102.251 224.04 103.671 223.851 105.564L218.313 149.868C217.272 158.199 213.911 164.873 208.231 169.89C202.646 174.907 195.64 177.416 187.215 177.416H162.365ZM182.387 159.524C182.198 159.997 182.387 160.234 182.955 160.234L189.203 160.092C191.664 159.997 193.794 158.909 195.593 156.826C197.486 154.743 198.67 151.998 199.143 148.59L204.255 106.842C204.35 106.274 204.397 105.469 204.397 104.428C204.397 101.588 203.734 99.3634 202.409 97.7541C201.178 96.0501 199.38 95.1981 197.013 95.1981H190.907C190.434 95.1981 190.197 95.4348 190.197 95.9081L182.387 159.524Z" fill="#FFA800"/>
<path d="M234.651 177.984C231.811 177.984 229.492 177.085 227.693 175.286C225.894 173.393 224.995 171.026 224.995 168.186C224.995 164.589 226.178 161.607 228.545 159.24C231.006 156.779 233.988 155.548 237.491 155.548C240.426 155.548 242.745 156.447 244.449 158.246C246.248 159.95 247.147 162.269 247.147 165.204C247.147 168.801 245.916 171.831 243.455 174.292C240.994 176.753 238.059 177.984 234.651 177.984Z" fill="#FFA800"/>
</svg>
