<svg width="398" height="96" viewBox="0 0 398 96" fill="none" xmlns="http://www.w3.org/2000/svg">
<path d="M382.036 26.6412C381.441 27.6653 380.569 28.537 379.55 29.1412C233.753 115.644 161.809 120.789 11.187 29.4339C9.89642 28.6511 8.86716 27.4397 8.32297 26.0319C5.86398 19.6703 13.3312 13.9447 18.9833 17.7617C150.301 106.443 240.212 101.101 371.793 17.0407C378.04 13.0498 385.757 20.23 382.036 26.6412Z" fill="black" fill-opacity="0.6"/>
<path d="M367.521 27.7507C367.044 28.0282 366.882 28.6403 367.159 29.1178C367.437 29.5952 368.049 29.7573 368.526 29.4798L367.521 27.7507ZM359.705 34.5523C360.185 34.2794 360.353 33.6689 360.08 33.1888C359.807 32.7086 359.197 32.5407 358.717 32.8137L359.705 34.5523ZM349.751 37.8478C349.268 38.1155 349.093 38.7241 349.361 39.2072C349.629 39.6903 350.237 39.8649 350.72 39.5972L349.751 37.8478ZM341.724 44.5117C342.21 44.25 342.392 43.6436 342.131 43.1572C341.869 42.6709 341.262 42.4888 340.776 42.7505L341.724 44.5117ZM331.776 47.5148C331.286 47.7697 331.095 48.3735 331.35 48.8635C331.605 49.3534 332.209 49.5439 332.699 49.289L331.776 47.5148ZM323.576 53.9463C324.069 53.6992 324.269 53.0985 324.022 52.6046C323.775 52.1107 323.174 51.9106 322.681 52.1577L323.576 53.9463ZM313.479 56.6611C312.981 56.8994 312.77 57.4964 313.009 57.9947C313.247 58.4929 313.844 58.7037 314.342 58.4655L313.479 56.6611ZM305.046 62.798C305.549 62.5698 305.772 61.9771 305.544 61.4742C305.316 60.9712 304.723 60.7485 304.22 60.9766L305.046 62.798ZM294.888 65.0854C294.38 65.3021 294.144 65.8896 294.361 66.3976C294.577 66.9056 295.165 67.1417 295.673 66.925L294.888 65.0854ZM286.207 70.8237C286.721 70.62 286.972 70.0387 286.768 69.5254C286.564 69.012 285.983 68.761 285.47 68.9647L286.207 70.8237ZM275.952 72.5884C275.433 72.7774 275.165 73.3513 275.354 73.8702C275.543 74.3892 276.117 74.6566 276.636 74.4676L275.952 72.5884ZM266.923 77.8347C267.447 77.6622 267.733 77.0971 267.561 76.5724C267.388 76.0478 266.823 75.7622 266.298 75.9346L266.923 77.8347ZM256.55 78.9522C256.02 79.1061 255.715 79.6608 255.868 80.1912C256.022 80.7216 256.577 81.0269 257.107 80.873L256.55 78.9522ZM247.189 83.547C247.725 83.4137 248.051 82.8711 247.918 82.3352C247.785 81.7992 247.242 81.4728 246.706 81.6061L247.189 83.547ZM236.77 83.8603C236.229 83.971 235.88 84.4994 235.991 85.0404C236.102 85.5815 236.63 85.9304 237.171 85.8196L236.77 83.8603ZM227.063 87.6552C227.608 87.5689 227.98 87.0567 227.894 86.5112C227.808 85.9657 227.296 85.5934 226.75 85.6798L227.063 87.6552ZM216.66 87.0331C216.111 87.0934 215.715 87.5873 215.775 88.1363C215.836 88.6852 216.33 89.0814 216.879 89.0211L216.66 87.0331ZM206.639 89.8911C207.19 89.8581 207.61 89.3844 207.577 88.8331C207.544 88.2818 207.07 87.8617 206.519 87.8947L206.639 89.8911ZM196.348 88.2474C195.796 88.2526 195.352 88.7044 195.358 89.2567C195.363 89.809 195.815 90.2525 196.367 90.2473L196.348 88.2474ZM186.09 90.0822C186.642 90.1051 187.108 89.6763 187.13 89.1245C187.153 88.5727 186.724 88.1068 186.173 88.084L186.09 90.0822ZM176.017 87.408C175.467 87.3576 174.981 87.7626 174.93 88.3126C174.88 88.8626 175.285 89.3493 175.835 89.3996L176.017 87.408ZM165.628 88.214C166.174 88.2909 166.68 87.9098 166.757 87.3629C166.834 86.816 166.453 86.3103 165.906 86.2335L165.628 88.214ZM155.859 84.5836C155.316 84.4817 154.794 84.8392 154.692 85.382C154.59 85.9248 154.948 86.4474 155.49 86.5493L155.859 84.5836ZM145.441 84.4362C145.979 84.5613 146.516 84.2266 146.641 83.6887C146.766 83.1507 146.432 82.6132 145.894 82.4882L145.441 84.4362ZM136.021 79.9814C135.489 79.835 134.938 80.148 134.792 80.6806C134.646 81.2131 134.959 81.7635 135.491 81.9099L136.021 79.9814ZM125.647 79.0071C126.174 79.1728 126.736 78.88 126.901 78.3532C127.067 77.8263 126.774 77.2649 126.247 77.0992L125.647 79.0071ZM116.574 73.8771C116.052 73.6941 115.482 73.9681 115.299 74.4892C115.116 75.0102 115.39 75.581 115.911 75.7641L116.574 73.8771ZM106.277 72.2147C106.792 72.4132 107.371 72.1563 107.569 71.6409C107.768 71.1256 107.511 70.5468 106.996 70.3483L106.277 72.2147ZM97.506 66.5431C96.9962 66.3308 96.4108 66.572 96.1985 67.0819C95.9862 67.5917 96.2274 68.1772 96.7372 68.3895L97.506 66.5431ZM87.307 64.3267C87.8116 64.5512 88.4027 64.3241 88.6272 63.8195C88.8517 63.3149 88.6246 62.7238 88.12 62.4993L87.307 64.3267ZM78.8682 58.2621C78.3685 58.0269 77.7728 58.2413 77.5376 58.741C77.3023 59.2407 77.5167 59.8365 78.0164 60.0717L78.8682 58.2621ZM68.7989 55.6226C69.2939 55.8673 69.8937 55.6643 70.1384 55.1692C70.3831 54.6741 70.1801 54.0744 69.6851 53.8296L68.7989 55.6226ZM60.5537 49.217C60.0628 48.9639 59.4597 49.1566 59.2066 49.6475C58.9534 50.1383 59.1461 50.7415 59.637 50.9946L60.5537 49.217ZM50.5251 46.2058C51.0121 46.4664 51.6181 46.2829 51.8786 45.7959C52.1392 45.309 51.9557 44.703 51.4688 44.4424L50.5251 46.2058ZM42.5425 39.587C42.0591 39.3199 41.4507 39.4952 41.1836 39.9787C40.9165 40.4621 41.0919 41.0705 41.5753 41.3375L42.5425 39.587ZM32.6442 36.3314C33.1243 36.6043 33.7348 36.4363 34.0077 35.9561C34.2805 35.4759 34.1125 34.8655 33.6323 34.5926L32.6442 36.3314ZM24.7193 29.4626C24.2421 29.1846 23.6299 29.346 23.3519 29.8232C23.0739 30.3004 23.2353 30.9127 23.7125 31.1907L24.7193 29.4626ZM14.9401 26.023C15.4147 26.3055 16.0284 26.1498 16.3109 25.6753C16.5934 25.2007 16.4378 24.587 15.9632 24.3045L14.9401 26.023ZM371.994 25.1376C370.495 26.0178 369.004 26.8888 367.521 27.7507L368.526 29.4798C370.012 28.6164 371.505 27.7439 373.006 26.8623L371.994 25.1376ZM358.717 32.8137C355.696 34.5312 352.708 36.2093 349.751 37.8478L350.72 39.5972C353.684 37.9549 356.678 36.2733 359.705 34.5523L358.717 32.8137ZM340.776 42.7505C337.744 44.3821 334.745 45.9702 331.776 47.5148L332.699 49.289C335.676 47.7399 338.684 46.1475 341.724 44.5117L340.776 42.7505ZM322.681 52.1577C319.581 53.7084 316.515 55.2096 313.479 56.6611L314.342 58.4655C317.389 57.0086 320.466 55.5021 323.576 53.9463L322.681 52.1577ZM304.22 60.9766C301.079 62.4017 297.969 63.7713 294.888 65.0854L295.673 66.925C298.768 65.6048 301.892 64.229 305.046 62.798L304.22 60.9766ZM285.47 68.9647C282.268 70.235 279.097 71.443 275.952 72.5884L276.636 74.4676C279.8 73.3154 282.989 72.1007 286.207 70.8237L285.47 68.9647ZM266.298 75.9346C263.024 77.0107 259.776 78.0166 256.55 78.9522L257.107 80.873C260.356 79.9307 263.627 78.9178 266.923 77.8347L266.298 75.9346ZM246.706 81.6061C243.375 82.4347 240.064 83.1862 236.77 83.8603L237.171 85.8196C240.493 85.1398 243.831 84.3821 247.189 83.547L246.706 81.6061ZM226.75 85.6798C223.375 86.2138 220.013 86.6649 216.66 87.0331L216.879 89.0211C220.264 88.6494 223.657 88.194 227.063 87.6552L226.75 85.6798ZM206.519 87.8947C203.126 88.0982 199.738 88.2158 196.348 88.2474L196.367 90.2473C199.79 90.2154 203.212 90.0966 206.639 89.8911L206.519 87.8947ZM186.173 88.084C182.795 87.9441 179.411 87.7188 176.017 87.408L175.835 89.3996C179.262 89.7135 182.678 89.9409 186.09 90.0822L186.173 88.084ZM165.906 86.2335C162.573 85.7652 159.226 85.2153 155.859 84.5836L155.49 86.5493C158.886 87.1865 162.264 87.7414 165.628 88.214L165.906 86.2335ZM145.894 82.4882C142.626 81.7281 139.336 80.8926 136.021 79.9814L135.491 81.9099C138.831 82.8279 142.146 83.67 145.441 84.4362L145.894 82.4882ZM126.247 77.0992C123.05 76.0937 119.827 75.0197 116.574 73.8771L115.911 75.7641C119.184 76.9137 122.428 77.9947 125.647 79.0071L126.247 77.0992ZM106.996 70.3483C103.863 69.1415 100.7 67.8732 97.506 66.5431L96.7372 68.3895C99.9474 69.7261 103.126 71.0011 106.277 72.2147L106.996 70.3483ZM88.12 62.4993C85.0672 61.1412 81.9841 59.7289 78.8682 58.2621L78.0164 60.0717C81.1446 61.5442 84.2408 62.9625 87.307 64.3267L88.12 62.4993ZM69.6851 53.8296C66.6732 52.341 63.6301 50.8035 60.5537 49.217L59.637 50.9946C62.7231 52.586 65.7764 54.1287 68.7989 55.6226L69.6851 53.8296ZM51.4688 44.4424C48.5247 42.867 45.5498 41.2485 42.5425 39.587L41.5753 41.3375C44.5901 43.0032 47.5728 44.626 50.5251 46.2058L51.4688 44.4424ZM33.6323 34.5926C30.6928 32.9221 27.7223 31.2121 24.7193 29.4626L23.7125 31.1907C26.7214 32.9437 29.6982 34.6573 32.6442 36.3314L33.6323 34.5926ZM15.9632 24.3045C14.4885 23.4265 13.0059 22.5393 11.5154 21.643L10.4846 23.3569C11.9777 24.2548 13.4628 25.1435 14.9401 26.023L15.9632 24.3045Z" fill="white"/>
</svg>
