<svg width="194" height="48" viewBox="0 0 194 48" fill="none" xmlns="http://www.w3.org/2000/svg">
<path d="M23.328 9.4C23.488 9.4 23.616 9.464 23.712 9.592C23.808 9.688 23.84 9.816 23.808 9.976L23.232 14.632C23.2 14.792 23.12 14.936 22.992 15.064C22.896 15.16 22.768 15.208 22.608 15.208H16.752C16.688 15.208 16.624 15.24 16.56 15.304C16.528 15.336 16.512 15.384 16.512 15.448L13.2 42.424C13.168 42.584 13.088 42.728 12.96 42.856C12.864 42.952 12.736 43 12.576 43H7.104C6.944 43 6.816 42.952 6.72 42.856C6.624 42.728 6.592 42.584 6.624 42.424L9.936 15.448C10 15.288 9.936 15.208 9.744 15.208H4.176C3.824 15.208 3.648 15.016 3.648 14.632L4.224 9.976C4.256 9.816 4.32 9.688 4.416 9.592C4.544 9.464 4.688 9.4 4.848 9.4H23.328ZM28.7569 43C28.3729 43 28.1809 42.824 28.1809 42.472L25.8769 10.024V9.928C25.8769 9.576 26.0689 9.4 26.4529 9.4H32.1169C32.4689 9.4 32.6449 9.576 32.6449 9.928L33.1729 27.208C33.2049 27.336 33.2529 27.4 33.3169 27.4C33.3809 27.4 33.4289 27.336 33.4609 27.208L38.1169 9.928C38.2129 9.576 38.4369 9.4 38.7889 9.4H43.4929C43.8449 9.4 44.0209 9.576 44.0209 9.928L44.6449 27.208C44.6449 27.336 44.6769 27.4 44.7409 27.4C44.8369 27.4 44.9009 27.336 44.9329 27.208L49.3969 9.928C49.4929 9.576 49.7169 9.4 50.0689 9.4H55.5889C55.9729 9.4 56.1169 9.608 56.0209 10.024L46.1329 42.472C46.0369 42.824 45.8129 43 45.4609 43H40.4209C40.0689 43 39.8929 42.824 39.8929 42.472L39.3169 24.712C39.3169 24.584 39.2849 24.52 39.2209 24.52C39.1569 24.52 39.0929 24.584 39.0289 24.712L34.3729 42.472C34.2769 42.824 34.0529 43 33.7009 43H28.7569ZM55.5394 43C55.3794 43 55.2514 42.952 55.1554 42.856C55.0594 42.728 55.0274 42.584 55.0594 42.424L59.0434 9.976C59.0754 9.816 59.1394 9.688 59.2354 9.592C59.3634 9.464 59.5074 9.4 59.6674 9.4H68.0674C70.6594 9.4 72.6914 10.12 74.1634 11.56C75.6674 12.968 76.4194 14.872 76.4194 17.272C76.4194 17.592 76.3874 18.072 76.3234 18.712L74.4514 33.688C74.0994 36.504 72.9634 38.76 71.0434 40.456C69.1554 42.152 66.7874 43 63.9394 43H55.5394ZM62.3074 36.952C62.2434 37.112 62.3074 37.192 62.4994 37.192L64.6114 37.144C65.4434 37.112 66.1634 36.744 66.7714 36.04C67.4114 35.336 67.8114 34.408 67.9714 33.256L69.6994 19.144C69.7314 18.952 69.7474 18.68 69.7474 18.328C69.7474 17.368 69.5234 16.616 69.0754 16.072C68.6594 15.496 68.0514 15.208 67.2514 15.208H65.1874C65.0274 15.208 64.9474 15.288 64.9474 15.448L62.3074 36.952ZM79.974 43.192C79.014 43.192 78.23 42.888 77.622 42.28C77.014 41.64 76.71 40.84 76.71 39.88C76.71 38.664 77.11 37.656 77.91 36.856C78.742 36.024 79.75 35.608 80.934 35.608C81.926 35.608 82.71 35.912 83.286 36.52C83.894 37.096 84.198 37.88 84.198 38.872C84.198 40.088 83.782 41.112 82.95 41.944C82.118 42.776 81.126 43.192 79.974 43.192Z" fill="#FFA800"/>
<path d="M103.272 13.0469V23H102.028V13.0469H103.272ZM105.891 13.0469V14.127H99.417V13.0469H105.891ZM115.421 17.3262V18.3994H111.107V17.3262H115.421ZM111.278 13.0469V23H110.02V13.0469H111.278ZM116.535 13.0469V23H115.277V13.0469H116.535ZM126.715 21.9268V23H122.394V21.9268H126.715ZM122.62 13.0469V23H121.362V13.0469H122.62ZM126.133 17.3262V18.3994H122.394V17.3262H126.133ZM126.646 13.0469V14.127H122.394V13.0469H126.646ZM139.089 19.9922L140.682 13.0469H141.577L141.106 15.7471L139.376 23H138.481L139.089 19.9922ZM137.517 13.0469L138.761 19.8555L139.13 23H138.248L136.266 13.0469H137.517ZM143.608 19.8486L144.825 13.0469H146.076L144.1 23H143.218L143.608 19.8486ZM141.721 13.0469L143.266 19.9922L143.861 23H142.965L141.311 15.7471L140.839 13.0469H141.721ZM156.652 17.1621V18.8916C156.652 19.5934 156.574 20.2109 156.419 20.7441C156.269 21.2728 156.048 21.7148 155.756 22.0703C155.464 22.4258 155.113 22.6924 154.703 22.8701C154.293 23.0479 153.831 23.1367 153.316 23.1367C152.819 23.1367 152.365 23.0479 151.955 22.8701C151.545 22.6924 151.192 22.4258 150.896 22.0703C150.599 21.7148 150.369 21.2728 150.205 20.7441C150.046 20.2109 149.966 19.5934 149.966 18.8916V17.1621C149.966 16.4603 150.046 15.8451 150.205 15.3164C150.365 14.7832 150.593 14.3389 150.889 13.9834C151.185 13.6279 151.538 13.3613 151.948 13.1836C152.359 13.0013 152.812 12.9102 153.309 12.9102C153.824 12.9102 154.286 13.0013 154.696 13.1836C155.111 13.3613 155.462 13.6279 155.749 13.9834C156.041 14.3389 156.264 14.7832 156.419 15.3164C156.574 15.8451 156.652 16.4603 156.652 17.1621ZM155.407 18.8916V17.1484C155.407 16.6016 155.362 16.1322 155.271 15.7402C155.18 15.3438 155.045 15.0202 154.867 14.7695C154.69 14.5189 154.471 14.3343 154.211 14.2158C153.951 14.0928 153.651 14.0312 153.309 14.0312C152.985 14.0312 152.694 14.0928 152.434 14.2158C152.179 14.3343 151.96 14.5189 151.778 14.7695C151.595 15.0202 151.454 15.3438 151.354 15.7402C151.258 16.1322 151.21 16.6016 151.21 17.1484V18.8916C151.21 19.443 151.258 19.917 151.354 20.3135C151.454 20.7054 151.595 21.029 151.778 21.2842C151.964 21.5348 152.188 21.7217 152.447 21.8447C152.707 21.9632 152.997 22.0225 153.316 22.0225C153.657 22.0225 153.958 21.9632 154.218 21.8447C154.482 21.7217 154.701 21.5348 154.874 21.2842C155.052 21.029 155.184 20.7054 155.271 20.3135C155.362 19.917 155.407 19.443 155.407 18.8916ZM161.267 13.0469H164.049C164.696 13.0469 165.238 13.1608 165.676 13.3887C166.118 13.6165 166.451 13.9538 166.674 14.4004C166.902 14.8424 167.016 15.387 167.016 16.0342C167.016 16.4899 166.94 16.9069 166.79 17.2852C166.64 17.6589 166.421 17.9779 166.134 18.2422C165.847 18.502 165.498 18.6956 165.088 18.8232L164.746 18.9668H162.265L162.251 17.8936H164.035C164.418 17.8936 164.737 17.8115 164.992 17.6475C165.247 17.4788 165.439 17.2533 165.566 16.9707C165.694 16.6882 165.758 16.376 165.758 16.0342C165.758 15.6514 165.701 15.3164 165.587 15.0293C165.473 14.7422 165.291 14.5212 165.04 14.3662C164.794 14.2067 164.464 14.127 164.049 14.127H162.524V23H161.267V13.0469ZM166.045 23L164.063 18.4883L165.368 18.4814L167.392 22.918V23H166.045ZM176.518 21.9268V23H172.39V21.9268H176.518ZM172.615 13.0469V23H171.357V13.0469H172.615ZM182.931 23H181.236L181.25 21.9268H182.931C183.528 21.9268 184.014 21.8128 184.387 21.585C184.761 21.3525 185.037 21.0107 185.215 20.5596C185.392 20.1038 185.481 19.541 185.481 18.8711V17.1689C185.481 16.6403 185.431 16.1846 185.331 15.8018C185.231 15.4189 185.08 15.1045 184.88 14.8584C184.679 14.6123 184.426 14.43 184.121 14.3115C183.815 14.1885 183.458 14.127 183.048 14.127H181.202V13.0469H183.048C183.608 13.0469 184.114 13.1357 184.565 13.3135C185.016 13.4867 185.404 13.7487 185.727 14.0996C186.051 14.446 186.297 14.8766 186.466 15.3916C186.639 15.9066 186.725 16.5036 186.725 17.1826V18.8711C186.725 19.5501 186.639 20.1471 186.466 20.6621C186.297 21.1771 186.049 21.6077 185.72 21.9541C185.392 22.3005 184.994 22.5625 184.524 22.7402C184.059 22.9134 183.528 23 182.931 23ZM181.933 13.0469V23H180.676V13.0469H181.933ZM100.162 33.2H104.614C105.678 33.2 106.616 33.4053 107.428 33.816C108.249 34.2173 108.884 34.7867 109.332 35.524C109.789 36.2613 110.018 37.12 110.018 38.1C110.018 39.08 109.789 39.9387 109.332 40.676C108.884 41.4133 108.249 41.9873 107.428 42.398C106.616 42.7993 105.678 43 104.614 43H100.162V33.2ZM104.502 41.138C105.482 41.138 106.261 40.8673 106.84 40.326C107.428 39.7753 107.722 39.0333 107.722 38.1C107.722 37.1667 107.428 36.4293 106.84 35.888C106.261 35.3373 105.482 35.062 104.502 35.062H102.43V41.138H104.502ZM119.876 41.18V43H112.288V33.2H119.694V35.02H114.542V37.148H119.092V38.912H114.542V41.18H119.876ZM122.241 33.2H124.509V41.152H129.423V43H122.241V33.2ZM131.25 33.2H133.518V43H131.25V33.2ZM145.771 33.2L141.529 43H139.289L135.061 33.2H137.511L140.493 40.2L143.517 33.2H145.771ZM154.737 41.18V43H147.149V33.2H154.555V35.02H149.403V37.148H153.953V38.912H149.403V41.18H154.737ZM163.346 43L161.456 40.27H161.344H159.37V43H157.102V33.2H161.344C162.212 33.2 162.963 33.3447 163.598 33.634C164.242 33.9233 164.737 34.334 165.082 34.866C165.427 35.398 165.6 36.028 165.6 36.756C165.6 37.484 165.423 38.114 165.068 38.646C164.723 39.1687 164.228 39.57 163.584 39.85L165.782 43H163.346ZM163.304 36.756C163.304 36.2053 163.127 35.7853 162.772 35.496C162.417 35.1973 161.899 35.048 161.218 35.048H159.37V38.464H161.218C161.899 38.464 162.417 38.3147 162.772 38.016C163.127 37.7173 163.304 37.2973 163.304 36.756ZM175.545 41.18V43H167.957V33.2H175.363V35.02H170.211V37.148H174.761V38.912H170.211V41.18H175.545ZM177.91 33.2H182.362C183.426 33.2 184.364 33.4053 185.176 33.816C185.997 34.2173 186.632 34.7867 187.08 35.524C187.537 36.2613 187.766 37.12 187.766 38.1C187.766 39.08 187.537 39.9387 187.08 40.676C186.632 41.4133 185.997 41.9873 185.176 42.398C184.364 42.7993 183.426 43 182.362 43H177.91V33.2ZM182.25 41.138C183.23 41.138 184.009 40.8673 184.588 40.326C185.176 39.7753 185.47 39.0333 185.47 38.1C185.47 37.1667 185.176 36.4293 184.588 35.888C184.009 35.3373 183.23 35.062 182.25 35.062H180.178V41.138H182.25Z" fill="black"/>
</svg>
